<svg xmlns="http://www.w3.org/2000/svg" xmlns:xlink="http://www.w3.org/1999/xlink" xmlns:inkscape="http://www.inkscape.org/namespaces/inkscape" version="1.1" width="174" height="230" viewBox="0 0 174 230">
<path transform="matrix(1.00002,0,0,-1,58.988817,115.384)" d="M0-113.38724V-56.69362 0 56.69362 113.38724H56.69362V56.69362 0-56.69362-113.38724H0Z" fill="#ff8080"/>
<path transform="matrix(1.00002,0,0,-1,58.988817,115.384)" d="M-56.69362 0H0V-56.69362H-56.69362V0" fill="#8080ff"/>
<path transform="matrix(1.00002,0,0,-1,58.988817,115.384)" d="M56.69362 0H113.38724V-56.69362H56.69362V0" fill="#8080ff"/>
<path transform="matrix(1.00002,0,0,-1,58.988817,115.384)" d="M0 56.69362H56.69362V113.38724H0Z" fill="#ffbf80"/>
<path transform="matrix(1.00002,0,0,-1,58.988817,115.384)" d="M0 0H56.69362V56.69362H0Z" fill="#80ff80"/>
<path transform="matrix(1.00002,0,0,-1,58.988817,115.384)" d="M0-56.69362H56.69362V0H0Z" fill="#df809f"/>
<path transform="matrix(1.00002,0,0,-1,58.988817,115.384)" d="M0-113.38724H56.69362V-56.69362H0Z" fill="#fff799"/>
<path transform="matrix(1.00002,0,0,-1,58.988817,115.384)" stroke-width=".79701" stroke-linecap="butt" stroke-miterlimit="10" stroke-linejoin="miter" fill="none" stroke="#000000" d="M0-113.38724V113.38724"/>
<path transform="matrix(1.00002,0,0,-1,58.988817,115.384)" stroke-width=".79701" stroke-linecap="butt" stroke-miterlimit="10" stroke-linejoin="miter" fill="none" stroke="#000000" d="M56.69362-113.38724V113.38724"/>
<path transform="matrix(1.00002,0,0,-1,58.988817,115.384)" stroke-width=".79701" stroke-linecap="butt" stroke-miterlimit="10" stroke-linejoin="miter" fill="none" stroke="#000000" d="M0 113.38724H56.69362"/>
<path transform="matrix(1.00002,0,0,-1,58.988817,115.384)" stroke-width=".79701" stroke-linecap="butt" stroke-miterlimit="10" stroke-linejoin="miter" fill="none" stroke="#000000" d="M0 56.69362H56.69362"/>
<path transform="matrix(1.00002,0,0,-1,58.988817,115.384)" stroke-width=".79701" stroke-linecap="butt" stroke-miterlimit="10" stroke-linejoin="miter" fill="none" stroke="#000000" d="M0 0H56.69362"/>
<path transform="matrix(1.00002,0,0,-1,58.988817,115.384)" stroke-width=".79701" stroke-linecap="butt" stroke-miterlimit="10" stroke-linejoin="miter" fill="none" stroke="#000000" d="M0-56.69362H56.69362"/>
<path transform="matrix(1.00002,0,0,-1,58.988817,115.384)" stroke-width=".79701" stroke-linecap="butt" stroke-miterlimit="10" stroke-linejoin="miter" fill="none" stroke="#000000" d="M-56.69362 0H0 56.69362 113.38724"/>
<path transform="matrix(1.00002,0,0,-1,58.988817,115.384)" stroke-width=".79701" stroke-linecap="butt" stroke-miterlimit="10" stroke-linejoin="miter" fill="none" stroke="#000000" d="M-56.69362-56.69362H0 56.69362 113.38724"/>
<path transform="matrix(1.00002,0,0,-1,58.988817,115.384)" stroke-width=".79701" stroke-linecap="butt" stroke-miterlimit="10" stroke-linejoin="miter" fill="none" stroke="#000000" d="M-56.69362 0V-56.69362"/>
<path transform="matrix(1.00002,0,0,-1,58.988817,115.384)" stroke-width=".79701" stroke-linecap="butt" stroke-miterlimit="10" stroke-linejoin="miter" fill="none" stroke="#000000" d="M113.38724 0V-56.69362"/>
</svg>
