<svg xmlns="http://www.w3.org/2000/svg" xmlns:xlink="http://www.w3.org/1999/xlink" xmlns:inkscape="http://www.inkscape.org/namespaces/inkscape" version="1.1" width="240" height="239" viewBox="0 0 240 239">
<path transform="matrix(1.00003,0,0,-1.00002,67.776477,172.08013)" d="M0 0H170.08086V170.08086H0Z" fill="#ffbf80" fill-opacity=".5"/>
<path transform="matrix(1.00003,0,0,-1.00002,67.776477,172.08013)" d="M-65.48018-65.48018H104.60068V104.60068H-65.48018Z" fill="#ffd9b3" fill-opacity=".5"/>
<path transform="matrix(1.00003,0,0,-1.00002,67.776477,172.08013)" d="M0 0H170.08086L104.60068-65.48018H-65.48018Z" fill="#ffcc99" fill-opacity=".5"/>
<path transform="matrix(1.00003,0,0,-1.00002,67.776477,172.08013)" d="M170.08086 0V170.08086L104.60068 104.60068V-65.48018Z" fill="#ffb366" fill-opacity=".5"/>
<path transform="matrix(1.00003,0,0,-1.00002,67.776477,172.08013)" d="M170.08086 170.08086H0L-65.48018 104.60068H104.60068Z" fill="#ffa64d" fill-opacity=".5"/>
<path transform="matrix(1.00003,0,0,-1.00002,67.776477,172.08013)" d="M0 170.08086V0L-65.48018-65.48018V104.60068Z" fill="#ff9933" fill-opacity=".5"/>
<path transform="matrix(1.00003,0,0,-1.00002,67.776477,172.08013)" stroke-width=".79701" stroke-linecap="butt" stroke-miterlimit="10" stroke-linejoin="miter" fill="none" stroke="#000000" d="M0 0H170.08086V170.08086H0Z"/>
<path transform="matrix(1.00003,0,0,-1.00002,67.776477,172.08013)" stroke-width=".79701" stroke-linecap="butt" stroke-miterlimit="10" stroke-linejoin="miter" fill="none" stroke="#000000" d="M-65.48018-65.48018H104.60068V104.60068H-65.48018Z"/>
<path transform="matrix(1.00003,0,0,-1.00002,67.776477,172.08013)" stroke-width=".79701" stroke-linecap="butt" stroke-miterlimit="10" stroke-linejoin="miter" fill="none" stroke="#000000" d="M0 0-65.48018-65.48018"/>
<path transform="matrix(1.00003,0,0,-1.00002,67.776477,172.08013)" stroke-width=".79701" stroke-linecap="butt" stroke-miterlimit="10" stroke-linejoin="miter" fill="none" stroke="#000000" d="M170.08086 0 104.60068-65.48018"/>
<path transform="matrix(1.00003,0,0,-1.00002,67.776477,172.08013)" stroke-width=".79701" stroke-linecap="butt" stroke-miterlimit="10" stroke-linejoin="miter" fill="none" stroke="#000000" d="M170.08086 170.08086 104.60068 104.60068"/>
<path transform="matrix(1.00003,0,0,-1.00002,67.776477,172.08013)" stroke-width=".79701" stroke-linecap="butt" stroke-miterlimit="10" stroke-linejoin="miter" fill="none" stroke="#000000" d="M0 170.08086-65.48018 104.60068"/>
<path transform="matrix(1.00003,0,0,-1.00002,67.776477,172.08013)" stroke-width=".79701" stroke-linecap="butt" stroke-miterlimit="10" stroke-linejoin="miter" fill="none" stroke="#000000" d="M0 56.69362-32.74008 23.95352"/>
</svg>
