<svg xmlns="http://www.w3.org/2000/svg" xmlns:xlink="http://www.w3.org/1999/xlink" xmlns:inkscape="http://www.inkscape.org/namespaces/inkscape" version="1.1" width="386" height="248" viewBox="0 0 386 248">
<defs>
<path id="font_1_57" d="M.5299988 0V.042999269H.43299867V.15718079H.5299988V.20019531H.43299867V.62919619C.43299867 .65419009 .43199159 .6582031 .40699769 .6582031 .3889923 .6582031 .3869934 .6582031 .375 .6431885L.0309906 .20019531V.15718079H.31498719V.042999269H.20599365V0C.23498535 .0019989014 .33399964 .0019989014 .36999513 .0019989014 .4039917 .0019989014 .5029907 .0019989014 .5299988 0M.32398988 .20019531H.07699585L.32398988 .5181885V.20019531Z"/>
<path id="font_1_66" d="M.2789917 0V.042999269H.21699524V.4501953L.04699707 .4423828V.3993683C.10598755 .3993683 .11299133 .3993683 .11299133 .3603363V.042999269H.04399109V0C.066986087 .0019989014 .13598633 .0019989014 .16299439 .0019989014 .19099427 .0019989014 .25498963 .0019989014 .2789917 0M.22898865 .6081238C.22898865 .64912417 .19499207 .68013 .15699768 .68013 .115997318 .68013 .083999637 .64712527 .083999637 .6081238 .083999637 .5671234 .117996219 .5361328 .1559906 .5361328 .19699097 .5361328 .22898865 .5691223 .22898865 .6081238Z"/>
<path id="font_1_77" d="M.59999087 0V.042999269H.5309906V.30613709C.5309906 .40118409 .48999024 .4501953 .37998963 .4501953 .30799867 .4501953 .24598694 .41519166 .21199036 .34014894H.21099854V.4501953L.041992189 .4423828V.3993683C.10398865 .3993683 .11099243 .3993683 .11099243 .36035157V.042999269H.041992189V0C.06498718 .0019989014 .13699341 .0019989014 .16499329 .0019989014 .19299317 .0019989014 .2659912 .0019989014 .2889862 0V.042999269H.21998596V.25627137C.21998596 .3643341 .2999878 .41719056 .3639984 .41719056 .40098573 .41719056 .42199708 .3932495 .42199708 .31733705V.042999269H.35299684V0C.37599183 .0019989014 .44799806 .0019989014 .47599793 .0019989014 .5039978 .0019989014 .57699587 .0019989014 .59999087 0Z"/>
<path id="font_1_106" d="M.5139923 .17938233C.5139923 .22834778 .4889984 .32321168 .33399964 .35020448 .42199708 .37719728 .48298646 .43919374 .48298646 .5181885 .48298646 .5932007 .41099549 .65625 .27198792 .65625 .1599884 .65625 .07798767 .59721377 .07798767 .5161896 .07798767 .46618653 .116989139 .4501953 .14299011 .4501953 .17199707 .4501953 .20698548 .4691925 .20698548 .5151825 .20698548 .53819277 .19699097 .57218936 .1499939 .5791931 .19198609 .62023928 .2599945 .62023928 .2659912 .62023928 .35499574 .62023928 .35499574 .55119326 .35499574 .52119448 .35499574 .49118043 .35099793 .44519044 .31900025 .40419007 .29299928 .37020875 .2669983 .36820985 .22898865 .36621095 .21699524 .36520387 .19699097 .36419679 .19299317 .36219789 .18699646 .35920716 .18699646 .35220338 .18699646 .34820558 .18699646 .33120729 .19299317 .33120729 .21299744 .33120729H.26098634C.37298585 .33120729 .37298585 .2273407 .37298585 .17938233 .37298585 .1343689 .37298585 .028274537 .2649994 .028274537 .24398804 .028274537 .17799378 .031280519 .12998963 .06536865 .17298889 .07437134 .18798828 .1053772 .18798828 .13537598 .18798828 .17637635 .15899658 .20536804 .117996219 .20536804 .07598877 .20527649 .04699707 .17626953 .04699707 .13427735 .04699707 .042266847 .14698792-.01171875 .269989-.01171875 .43499757-.01171875 .5139923 .07926941 .5139923 .17927552V.17938233Z"/>
<path id="font_1_56" d="M.5049896 .20114136C.5049896 .32315064 .42199708 .41015626 .2849884 .41015626 .24499512 .41015626 .19699097 .4021454 .1539917 .3701477V.51953127C.18798828 .51101687 .21499634 .51101687 .22999573 .51101687 .2539978 .5115204 .31098939 .5115204 .37799073 .55252078 .40899659 .57147219 .46099855 .61634829 .46099855 .6392822 .46099855 .64427188 .46099855 .65625 .44898988 .65625 .44898988 .65625 .44599916 .65625 .43598939 .6512604 .3899994 .6351013 .34098817 .62402346 .2849884 .62402346 .22799683 .62402346 .17999268 .6351013 .1329956 .6522217 .12599182 .65423586 .12298584 .65625 .11999512 .65625 .10798645 .65625 .10798645 .6461792 .10798645 .62905886V.33825685C.10798645 .31932069 .10798645 .3083496 .12799073 .3083496 .13798523 .3083496 .13999939 .3093567 .147995 .31932069 .1599884 .33328248 .19599915 .3771515 .2809906 .3771515 .37298585 .3771515 .37298585 .283432 .37298585 .2046051 .37298585 .13259888 .37298585 .028274537 .25 .028274537 .21299744 .028274537 .1499939 .04234314 .115997318 .099594119 .16899109 .09916687 .18199158 .13916016 .18199158 .16116333 .18199158 .19760132 .1559906 .22460938 .11898804 .22460938 .08898926 .22460938 .055999757 .206604 .055999757 .15960694 .055999757 .07247925 .1349945-.01171875 .2539978-.01171875 .4079895-.01184082 .5049896 .0771637 .5049896 .20117188V.20114136Z"/>
<path id="font_1_101" d="M.5139923 .20610047C.5139923 .34596253 .4169922 .41992188 .2979889 .41992188 .27799989 .41992188 .21398926 .41992188 .17399597 .33496095V.36193849C.17399597 .42295838 .1769867 .4855957 .20498657 .53959658 .22698975 .581604 .27799989 .62023928 .34298707 .62023928 .3619995 .62023928 .397995 .61727908 .42199708 .5926056 .38398744 .5886078 .36799623 .5606079 .36799623 .53359988 .36799623 .49760438 .394989 .47460938 .4269867 .47460938 .45298768 .47460938 .48599244 .49160768 .48599244 .53559878 .48599244 .5955658 .44599916 .65625 .34098817 .65625 .21598816 .65625 .04699707 .578598 .04699707 .31698609 .04699707 .25004579 .04699707-.01171875 .28399659-.01171875 .41600038-.01171875 .5139923 .0662384 .5139923 .20610047M.3869934 .20709229C.3869934 .10820007 .3869934 .028274537 .2829895 .028274537 .21899414 .028274537 .19400025 .082214359 .18998719 .09020996 .17599488 .123184207 .17599488 .20309448 .17599488 .21209717 .17599488 .33496095 .22898865 .3869171 .28799439 .3869171 .3869934 .3869171 .3869934 .30699159 .3869934 .20709229Z"/>
</defs>
<path transform="matrix(1.00003,0,0,-1,42.50186,228.969)" d="M0 0H226.77448L0 170.08086Z" fill="#00ff00"/>
<path transform="matrix(1.00003,0,0,-1,42.50186,228.969)" stroke-width="1.19553" stroke-linecap="butt" stroke-miterlimit="10" stroke-linejoin="miter" fill="none" stroke="#000000" d="M0 0H226.77448L0 170.08086Z"/>
<path transform="matrix(1.00003,0,0,-1,42.50186,228.969)" d="M113.38724 226.77448 340.1617 56.69362 113.38724 85.0404Z" fill="#00ff00"/>
<path transform="matrix(1.00003,0,0,-1,42.50186,228.969)" stroke-width="1.19553" stroke-linecap="butt" stroke-miterlimit="10" stroke-linejoin="miter" fill="none" stroke="#000000" d="M113.38724 226.77448 340.1617 56.69362 113.38724 85.0404Z"/>
<path transform="matrix(1.00003,0,0,-1,42.50186,228.969)" stroke-width="1.19553" stroke-linecap="butt" stroke-dasharray="2.98883,2.98883" stroke-miterlimit="10" stroke-linejoin="miter" fill="none" stroke="#000000" d="M113.38724 226.77448V85.0404"/>
<path transform="matrix(1.00003,0,0,-1,42.50186,228.969)" stroke-width="1.19553" stroke-linecap="butt" stroke-dasharray="2.98883,2.98883" stroke-miterlimit="10" stroke-linejoin="miter" fill="none" stroke="#000000" d="M340.1617 56.69362 113.38724 85.0404"/>
<path transform="matrix(1.00003,0,0,-1,42.50186,228.969)" stroke-width="1.19553" stroke-linecap="butt" stroke-dasharray="2.98883,2.98883" stroke-miterlimit="10" stroke-linejoin="miter" fill="none" stroke="#000000" d="M0 0 113.38724 85.0404"/>
<path transform="matrix(1.00003,0,0,-1,42.50186,228.969)" stroke-width="1.19553" stroke-linecap="butt" stroke-miterlimit="10" stroke-linejoin="miter" fill="none" stroke="#000000" d="M0 170.08086 113.38724 226.77448"/>
<path transform="matrix(1.00003,0,0,-1,42.50186,228.969)" stroke-width="1.19553" stroke-linecap="butt" stroke-miterlimit="10" stroke-linejoin="miter" fill="none" stroke="#000000" d="M113.38724 226.77448 340.1617 56.69362"/>
<path transform="matrix(1.00003,0,0,-1,42.50186,228.969)" stroke-width="1.19553" stroke-linecap="butt" stroke-miterlimit="10" stroke-linejoin="miter" fill="none" stroke="#000000" d="M226.77448 0 340.1617 56.69362"/>
<path transform="matrix(1.00003,0,0,-1,42.50186,228.969)" stroke-width="1.19553" stroke-linecap="butt" stroke-miterlimit="10" stroke-linejoin="miter" fill="none" stroke="#000000" d="M17.00824 0V17.00824H0"/>
<use data-text="4" xlink:href="#font_1_57" transform="matrix(20.66312,0,0,-20.6625,136.51068,246.54)" fill="#0000ff"/>
<use data-text="i" xlink:href="#font_1_66" transform="matrix(20.66312,0,0,-20.6625,155.87203,246.54)" fill="#0000ff"/>
<use data-text="n" xlink:href="#font_1_77" transform="matrix(20.66312,0,0,-20.6625,162.33959,246.54)" fill="#0000ff"/>
<use data-text="3" xlink:href="#font_1_106" transform="matrix(20.66312,0,0,-20.6625,.21759033,150.82999)"/>
<use data-text="i" xlink:href="#font_1_66" transform="matrix(20.66312,0,0,-20.6625,19.578934,150.82999)"/>
<use data-text="n" xlink:href="#font_1_77" transform="matrix(20.66312,0,0,-20.6625,26.046494,150.82999)"/>
<use data-text="5" xlink:href="#font_1_56" transform="matrix(20.66312,0,0,-20.6625,102.716678,111.813999)"/>
<use data-text="i" xlink:href="#font_1_66" transform="matrix(20.66312,0,0,-20.6625,122.07802,111.813999)"/>
<use data-text="n" xlink:href="#font_1_77" transform="matrix(20.66312,0,0,-20.6625,128.54558,111.813999)"/>
<use data-text="6" xlink:href="#font_1_101" transform="matrix(20.66312,0,0,-20.6625,283.6941,189.846)"/>
<use data-text="i" xlink:href="#font_1_66" transform="matrix(20.66312,0,0,-20.6625,303.05546,189.846)"/>
<use data-text="n" xlink:href="#font_1_77" transform="matrix(20.66312,0,0,-20.6625,309.523,189.846)"/>
</svg>
