<svg xmlns="http://www.w3.org/2000/svg" xmlns:xlink="http://www.w3.org/1999/xlink" xmlns:inkscape="http://www.inkscape.org/namespaces/inkscape" version="1.1" width="90" height="117" viewBox="0 0 90 117">
<path transform="matrix(1.00003,0,0,-1,58.99022,87.038)" stroke-width=".79701" stroke-linecap="butt" stroke-miterlimit="10" stroke-linejoin="miter" fill="none" stroke="#000000" d="M-56.69362-28.3468H0L28.3468 0H-28.3468Z"/>
<path transform="matrix(1.00003,0,0,-1,58.99022,87.038)" stroke-width=".79701" stroke-linecap="butt" stroke-miterlimit="10" stroke-linejoin="miter" fill="none" stroke="#000000" d="M0 85.04042-56.69362-28.3468"/>
<path transform="matrix(1.00003,0,0,-1,58.99022,87.038)" stroke-width=".79701" stroke-linecap="butt" stroke-miterlimit="10" stroke-linejoin="miter" fill="none" stroke="#000000" d="M0 85.04042V-28.3468"/>
<path transform="matrix(1.00003,0,0,-1,58.99022,87.038)" stroke-width=".79701" stroke-linecap="butt" stroke-miterlimit="10" stroke-linejoin="miter" fill="none" stroke="#000000" d="M0 85.04042 28.3468 0"/>
<path transform="matrix(1.00003,0,0,-1,58.99022,87.038)" stroke-width=".79701" stroke-linecap="butt" stroke-dasharray="2.98883,2.98883" stroke-miterlimit="10" stroke-linejoin="miter" fill="none" stroke="#000000" d="M0 85.04042-28.3468 0"/>
<path transform="matrix(1.00003,0,0,-1,58.99022,87.038)" d="M-56.69362-28.3468H0L28.3468 0H-28.3468Z" fill="#ccccff" fill-opacity=".5"/>
<path transform="matrix(1.00003,0,0,-1,58.99022,87.038)" d="M0-28.3468 28.3468 0 0 85.04042Z" fill="#9999ff" fill-opacity=".5"/>
<path transform="matrix(1.00003,0,0,-1,58.99022,87.038)" d="M-28.3468 0H28.3468L0 85.04042Z" fill="#6666ff" fill-opacity=".5"/>
<path transform="matrix(1.00003,0,0,-1,58.99022,87.038)" d="M-56.69362-28.3468-28.3468 0 0 85.04042Z" fill="#3333ff" fill-opacity=".5"/>
</svg>
