<svg xmlns="http://www.w3.org/2000/svg" xmlns:xlink="http://www.w3.org/1999/xlink" xmlns:inkscape="http://www.inkscape.org/namespaces/inkscape" version="1.1" width="175" height="203" viewBox="0 0 175 203">
<defs>
<path id="font_1_101" d="M.41999818 .20526123C.41999818 .33026124 .33898927 .42126466 .23699951 .42126466 .17599488 .42126466 .1309967 .38127137 .10598755 .31126405V.34526063C.10598755 .5844116 .21798706 .63812258 .2829895 .63812258 .3039856 .63812258 .35499574 .6341553 .375 .5954132 .35899354 .5954132 .32899476 .5954132 .32899476 .56040957 .32899476 .5334015 .35099793 .52441409 .36499024 .52441409 .37399293 .52441409 .40098573 .52841189 .40098573 .56240847 .40098573 .6251221 .35099793 .6611328 .28199769 .6611328 .16299439 .6611328 .037994386 .5371704 .037994386 .31625367 .037994386 .0443573 .15098572-.015625 .23098755-.015625 .32798768-.0155181889 .41999818 .07148743 .41999818 .20549011V.20526123M.35198976 .20648194C.35198976 .15245056 .35198976 .11242676 .33099366 .072402957 .30899049 .03138733 .2769928 .008361816 .23098755 .008361816 .10798645 .008361816 .10798645 .19247437 .10798645 .22949219 .10798645 .3013916 .14199829 .40527345 .23498535 .40527345 .2519989 .40527345 .30099488 .40527345 .33399964 .3363495 .35198976 .29748536 .35198976 .256485 .35198976 .20648194Z"/>
<path id="font_1_43" d="M.38398744 .11817932C.38398744 .122177127 .3829956 .1251831 .37599183 .1251831 .36898805 .1251831 .36799623 .124176029 .3639984 .11117554 .33799745 .030181885 .2809906 .010177612 .23799134 .010177612 .17399597 .010177612 .09700012 .06918335 .09700012 .21717835 .09700012 .36930848 .17098999 .42437745 .22999573 .42437745 .2689972 .42437745 .32699586 .40534974 .34899903 .35029603 .32998658 .35029603 .3019867 .35029603 .3019867 .31529237 .3019867 .28729249 .32499696 .27929688 .33799745 .27929688 .34498597 .27931214 .37399293 .28230287 .37399293 .31732179 .37399293 .3883667 .30599977 .4423828 .22898865 .4423828 .12298584 .4423828 .032989503 .3443451 .032989503 .21627808 .032989503 .083221439 .1269989-.0078125 .22898865-.0078125 .35299684-.0078125 .38398744 .10722351 .38398744 .1182251V.11817932Z"/>
<path id="font_1_75" d="M.74398806 0V.025985718C.6799927 .025985718 .6759949 .02999878 .6759949 .06904602V.3043213C.6759949 .35438539 .6669922 .43847657 .5479889 .43847657 .47999574 .43847657 .43299867 .3924408 .4149933 .33836366H.4139862C.4019928 .4204712 .34298707 .43847657 .2869873 .43847657 .20799256 .43847657 .16699219 .3774109 .1519928 .33737184H.15098572V.43847657L.032989503 .4273529V.4013672C.09199524 .4013672 .100997928 .39535523 .100997928 .3473053V.06903076C.100997928 .0309906 .09700012 .025985718 .032989503 .025985718V0C.056991579 .0019989014 .100997928 .0019989014 .1269989 .0019989014 .15299988 .0019989014 .19799805 .0019989014 .22200012 0V.025985718C.1579895 .025985718 .1539917 .02999878 .1539917 .06903076V.26123048C.1539917 .35339356 .20999146 .4224701 .27999879 .4224701 .35398866 .4224701 .3619995 .35638429 .3619995 .30833436V.06904602C.3619995 .03100586 .35798646 .025985718 .2939911 .025985718V0C.31799317 .0019989014 .3619995 .0019989014 .3880005 .0019989014 .4139862 .0019989014 .45899964 .0019989014 .48298646 0V.025985718C.4189911 .025985718 .4149933 .02999878 .4149933 .06904602V.26127626C.4149933 .35339356 .47099305 .4224701 .54100039 .4224701 .61499026 .4224701 .6230011 .35638429 .6230011 .30833436V.06904602C.6230011 .03100586 .61898806 .025985718 .5549927 .025985718V0C.57899478 .0019989014 .6230011 .0019989014 .6489868 .0019989014 .6749878 .0019989014 .7200012 .0019989014 .74398806 0Z"/>
</defs>
<path transform="matrix(1.00006,0,0,-1.00006,2.494011,172.28737)" d="M0 0H170.08086C170.08086 93.9343 93.93423 170.08092-.00005 170.08092Z" fill="#00aeef"/>
<path transform="matrix(1.00006,0,0,-1.00006,2.494011,172.28737)" stroke-width="1.19553" stroke-linecap="butt" stroke-miterlimit="10" stroke-linejoin="miter" fill="none" stroke="#000000" d="M0 0H170.08086C170.08086 93.9343 93.93423 170.08092-.00005 170.08092Z"/>
<path transform="matrix(1.00006,0,0,-1.00006,2.494011,172.28737)" stroke-width="1.19553" stroke-linecap="butt" stroke-miterlimit="10" stroke-linejoin="miter" fill="none" stroke="#000000" d="M0 0V28.3468H28.3468V0ZM28.3468 28.3468"/>
<path transform="matrix(1.00006,0,0,-1.00006,2.494011,172.28737)" stroke-width=".3985" stroke-linecap="butt" stroke-miterlimit="10" stroke-linejoin="miter" fill="none" stroke="#000000" d="M85.04042-8.50412"/>
<use data-text="6" xlink:href="#font_1_101" transform="matrix(24.788586,0,0,-24.788586,63.506669,200.69709)"/>
<use data-text="c" xlink:href="#font_1_43" transform="matrix(24.788586,0,0,-24.788586,82.37078,200.69709)"/>
<use data-text="m" xlink:href="#font_1_75" transform="matrix(24.788586,0,0,-24.788586,92.43495,200.69709)"/>
</svg>
