<svg xmlns="http://www.w3.org/2000/svg" xmlns:xlink="http://www.w3.org/1999/xlink" xmlns:inkscape="http://www.inkscape.org/namespaces/inkscape" version="1.1" width="233" height="228" viewBox="0 0 233 228">
<defs>
<path id="font_1_51" d="M.5139923 .18426514C.5139923 .29325868 .42799378 .34025575 .3769989 .36825563 .4269867 .3942566 .48298646 .4312439 .48298646 .5092468 .48298646 .61224368 .3909912 .65625 .28199769 .65625 .14898682 .65625 .07798767 .580246 .07798767 .48324586 .07798767 .429245 .10499573 .36924745 .1789856 .33026124 .06599426 .28025819 .04699707 .21125794 .04699707 .15927124 .04699707 .044265748 .14698792-.01171875 .2789917-.01171875 .4269867-.01171875 .5139923 .06826782 .5139923 .18426514M.4119873 .5092468C.4119873 .46824647 .3939972 .4252472 .33699037 .3922577L.19699097 .47125245C.1769867 .48225404 .14898682 .505249 .14898682 .5382385 .14898682 .61824038 .2559967 .62023928 .2789917 .62023928 .3639984 .62023928 .4119873 .5752411 .4119873 .5092468M.43399049 .13327027C.43399049 .053268434 .35398866 .028274537 .28199769 .028274537 .18299866 .028274537 .1269989 .08126831 .1269989 .16026306 .1269989 .23326111 .17199707 .27926637 .21998596 .30625917L.35798646 .2272644C.3909912 .20826721 .43399049 .18426514 .43399049 .13327027Z"/>
<path id="font_1_43" d="M.46798707 .117126468C.46798707 .12913513 .45700074 .12913513 .44699098 .12913513 .43099977 .12913513 .42999269 .12812805 .4249878 .11613464 .41799928 .09713745 .3909912 .030136109 .29899598 .030136109 .1579895 .030136109 .1579895 .1821289 .1579895 .22712708 .1579895 .28611756 .15899658 .41711427 .2899933 .41711427 .29699708 .41711427 .35598756 .41511537 .35598756 .41011048 .35598756 .41011048 .35499574 .40811158 .35299684 .40711976 .34999085 .40411378 .33699037 .38911439 .33699037 .36412049 .33699037 .32211305 .37098695 .30511476 .3959961 .30511476 .4169922 .30511476 .45498658 .31811524 .45498658 .3651123 .45498658 .44711305 .33999635 .453125 .28599549 .453125 .10798645 .453125 .037994386 .33711244 .037994386 .22212219 .037994386 .086135867 .1329956-.005859375 .27999879-.005859375 .43699647-.005859375 .46798707 .11012268 .46798707 .117126468Z"/>
<path id="font_1_75" d="M.9129944 0V.042999269H.84399417V.30636598C.84399417 .39823915 .8049927 .4501953 .69299319 .4501953 .59199526 .4501953 .54499819 .38227845 .5289917 .3503723 .5130005 .43518067 .44499208 .4501953 .3809967 .4501953 .2849884 .4501953 .23298645 .38827516 .21199036 .3403778H.21099854V.4501953L.041992189 .4423828V.3993683C.10398865 .3993683 .11099243 .3993683 .11099243 .36035157V.042999269H.041992189V0C.06498718 .0019989014 .13699341 .0019989014 .16499329 .0019989014 .19299317 .0019989014 .2659912 .0019989014 .2889862 0V.042999269H.21998596V.25627137C.21998596 .36532594 .30099488 .41719056 .3639984 .41719056 .40098573 .41719056 .4229889 .3952484 .4229889 .3173828V.042999269H.35398866V0C.3769989 .0019989014 .44898988 .0019989014 .47698976 .0019989014 .5049896 .0019989014 .5779877 .0019989014 .6009979 0V.042999269H.5319977V.25628663C.5319977 .36532594 .61299136 .41719056 .6759949 .41719056 .71299746 .41719056 .7350006 .3952484 .7350006 .3173828V.042999269H.66600039V0C.68899539 .0019989014 .7609863 .0019989014 .78900149 .0019989014 .81700137 .0019989014 .8899994 .0019989014 .9129944 0Z"/>
</defs>
<path transform="matrix(1.00005,0,0,-1.00002,2.2951585,214.59999)" stroke-width=".79701" stroke-linecap="butt" stroke-miterlimit="10" stroke-linejoin="miter" fill="none" stroke="#000000" d="M0 0H170.08086V170.08086H0Z"/>
<path transform="matrix(1.00005,0,0,-1.00002,2.2951585,214.59999)" stroke-width=".79701" stroke-linecap="butt" stroke-miterlimit="10" stroke-linejoin="miter" fill="none" stroke="#000000" d="M0 0 42.5202 42.5202"/>
<path transform="matrix(1.00005,0,0,-1.00002,2.2951585,214.59999)" stroke-width=".79701" stroke-linecap="butt" stroke-miterlimit="10" stroke-linejoin="miter" fill="none" stroke="#000000" d="M170.08086 0 212.60106 42.5202"/>
<path transform="matrix(1.00005,0,0,-1.00002,2.2951585,214.59999)" stroke-width=".79701" stroke-linecap="butt" stroke-miterlimit="10" stroke-linejoin="miter" fill="none" stroke="#000000" d="M170.08086 170.08086 212.60106 212.60106"/>
<path transform="matrix(1.00005,0,0,-1.00002,2.2951585,214.59999)" stroke-width=".79701" stroke-linecap="butt" stroke-miterlimit="10" stroke-linejoin="miter" fill="none" stroke="#000000" d="M0 170.08086 42.5202 212.60106"/>
<path transform="matrix(1.00005,0,0,-1.00002,2.2951585,214.59999)" stroke-width=".79701" stroke-linecap="butt" stroke-miterlimit="10" stroke-linejoin="miter" fill="none" stroke="#000000" d="M42.5202 42.5202H212.60106V212.60106H42.5202Z"/>
<path transform="matrix(1.00005,0,0,-1.00002,2.2951585,214.59999)" stroke-width=".79701" stroke-linecap="butt" stroke-dasharray="2.98883,2.98883" stroke-miterlimit="10" stroke-linejoin="miter" fill="none" stroke="#000000" d="M42.5202 42.5202V212.60106"/>
<path transform="matrix(1.00005,0,0,-1.00002,2.2951585,214.59999)" stroke-width=".79701" stroke-linecap="butt" stroke-dasharray="2.98883,2.98883" stroke-miterlimit="10" stroke-linejoin="miter" fill="none" stroke="#000000" d="M212.60106 42.5202V212.60106"/>
<path transform="matrix(1.00005,0,0,-1.00002,2.2951585,214.59999)" d="M102.08392-.19925H67.99692C66.89645-.19925 66.00436-1.09132 66.00436-2.1918V-11.77516C66.00436-12.87563 66.89645-13.76772 67.99692-13.76772H102.08392C103.18439-13.76772 104.07648-12.87563 104.07648-11.77516V-2.1918C104.07648-1.09132 103.18439-.19925 102.08392-.19925ZM66.00436-13.76772" fill="#ffffff"/>
<use data-text="8" xlink:href="#font_1_51" transform="matrix(14.346916,0,0,-14.346487,70.295558,226.20322)"/>
<use data-text="c" xlink:href="#font_1_43" transform="matrix(14.346916,0,0,-14.346487,83.75297,226.20322)"/>
<use data-text="m" xlink:href="#font_1_75" transform="matrix(14.346916,0,0,-14.346487,90.92643,226.20322)"/>
<path transform="matrix(1.00005,0,0,-1.00002,2.2951585,214.59999)" d="M224.58267 91.82466H190.49567C189.39519 91.82466 188.50312 90.93257 188.50312 89.8321V80.24875C188.50312 79.14827 189.39519 78.2562 190.49567 78.2562H224.58267C225.68314 78.2562 226.57523 79.14827 226.57523 80.24875V89.8321C226.57523 90.93257 225.68314 91.82466 224.58267 91.82466ZM188.50312 78.2562" fill="#ffffff"/>
<use data-text="8" xlink:href="#font_1_51" transform="matrix(14.346916,0,0,-14.346487,192.80069,134.17739)"/>
<use data-text="c" xlink:href="#font_1_43" transform="matrix(14.346916,0,0,-14.346487,206.25809,134.17739)"/>
<use data-text="m" xlink:href="#font_1_75" transform="matrix(14.346916,0,0,-14.346487,213.43155,134.17739)"/>
<path transform="matrix(1.00005,0,0,-1.00002,2.2951585,214.59999)" d="M229.64456 33.61038H195.55756C194.45709 33.61038 193.565 32.71829 193.565 31.61783V22.03447C193.565 20.934 194.45709 20.04192 195.55756 20.04192H229.64456C230.74503 20.04192 231.63712 20.934 231.63712 22.03447V31.61783C231.63712 32.71829 230.74503 33.61038 229.64456 33.61038ZM193.565 20.04192" fill="#ffffff"/>
<use data-text="8" xlink:href="#font_1_51" transform="matrix(14.346916,0,0,-14.346487,197.86292,192.39255)"/>
<use data-text="c" xlink:href="#font_1_43" transform="matrix(14.346916,0,0,-14.346487,211.32035,192.39255)"/>
<use data-text="m" xlink:href="#font_1_75" transform="matrix(14.346916,0,0,-14.346487,218.4938,192.39255)"/>
</svg>
